<svg xmlns="http://www.w3.org/2000/svg" viewBox="0 0 175.33 49.5"><defs><style>.a{fill:#373331;}.b{fill:#77c17b;}</style></defs><title>easyicon-logo</title><path class="a" d="M1.19,26.44A11.48,11.48,0,0,1,2,22.11a9.93,9.93,0,0,1,2.26-3.42,10.37,10.37,0,0,1,3.48-2.23,11.84,11.84,0,0,1,4.41-.8,11.54,11.54,0,0,1,5.06.93,8.18,8.18,0,0,1,2.93,2.28,7.3,7.3,0,0,1,1.38,2.83,11.79,11.79,0,0,1,.34,2.57h-16a12.85,12.85,0,0,0,.26,4.85,7.63,7.63,0,0,0,1.87,3.37,7.77,7.77,0,0,0,3.22,1.95,14.1,14.1,0,0,0,4.36.62,6.7,6.7,0,0,1,1.48.13.68.68,0,0,1,.54.75q0,.73-1.09,1a11.67,11.67,0,0,1-3.06.31,15.43,15.43,0,0,1-4.54-.67,11.85,11.85,0,0,1-3.92-2A9.82,9.82,0,0,1,2.2,31.21,10.56,10.56,0,0,1,1.19,26.44Zm13.28-4A2.69,2.69,0,0,0,16.08,22a1.39,1.39,0,0,0,.57-1.19,2.58,2.58,0,0,0-1.25-2.21,4.92,4.92,0,0,0-2.85-.86A4.47,4.47,0,0,0,9.1,19.15a8.23,8.23,0,0,0-1.84,3.29Z" transform="translate(-1.19 -1.33)"/><path class="a" d="M24.43,16.53l2.21-.34q1.17-.18,2.31-.31t2.21-.21q1.06-.08,1.84-.08a13.29,13.29,0,0,1,5,.75,5,5,0,0,1,2.62,2.54,12.53,12.53,0,0,1,1,4.7q.16,2.91.16,7.16,0,3.27-.05,5.11a21.46,21.46,0,0,1-.21,2.75,2,2,0,0,1-.42,1.12,1,1,0,0,1-.62.21.77.77,0,0,1-.78-.54,12.54,12.54,0,0,1-.39-1.22,3.5,3.5,0,0,0-.6-1.22,1.66,1.66,0,0,0-1.4-.54,8.74,8.74,0,0,0-1.37.1q-.65.1-1.32.26T33.2,37a13.06,13.06,0,0,1-1.71.1,7.5,7.5,0,0,1-2.91-.47,4.4,4.4,0,0,1-1.66-1.14,3.7,3.7,0,0,1-.78-1.45,5.64,5.64,0,0,1-.21-1.45A4.17,4.17,0,0,1,27,29.78a8.83,8.83,0,0,1,2.8-2.08,19.78,19.78,0,0,1,3.89-1.4A34.26,34.26,0,0,1,38,25.5a6.63,6.63,0,0,0-.34-3.06,3.94,3.94,0,0,0-1.56-1.87,7,7,0,0,0-2.65-.93,22.54,22.54,0,0,0-3.61-.26l-3,0q-1.27,0-2.46.13Zm6.23,15.56a3.42,3.42,0,0,0,.78,2.31,2.71,2.71,0,0,0,2.18.91,6.45,6.45,0,0,0,1.27-.16,3.64,3.64,0,0,0,1.4-.62,4,4,0,0,0,1.12-1.27,4.15,4.15,0,0,0,.47-2.1,3.75,3.75,0,0,0-.78-2.52,2.78,2.78,0,0,0-2.23-.91,3.84,3.84,0,0,0-3.06,1.32A4.51,4.51,0,0,0,30.66,32.09Z" transform="translate(-1.19 -1.33)"/><path class="a" d="M47.1,33.65q.26-.73,1.25-.47a5.94,5.94,0,0,1,.86.29q.6.23,1.45.49a19.3,19.3,0,0,0,1.92.47,11.74,11.74,0,0,0,2.26.21,6.07,6.07,0,0,0,3.79-1,3,3,0,0,0,1.3-2.41A3.12,3.12,0,0,0,59,28.82a6.49,6.49,0,0,0-2.21-1.32A24.38,24.38,0,0,0,54,26.64a17.17,17.17,0,0,1-2.85-.93,6.06,6.06,0,0,1-2.21-1.58A4.08,4.08,0,0,1,48,21.35a4.22,4.22,0,0,1,.65-2.28,5.55,5.55,0,0,1,1.82-1.76,9.94,9.94,0,0,1,2.78-1.14,14.34,14.34,0,0,1,3.58-.42q.78,0,2,.11a18.49,18.49,0,0,1,2.28.34,5.8,5.8,0,0,1,1.82.69A1,1,0,0,1,63.5,18a.71.71,0,0,1-.39.55,1.56,1.56,0,0,1-.75.18,5.35,5.35,0,0,1-1.61-.26,9.73,9.73,0,0,0-2.65-.26,8.27,8.27,0,0,0-1.84.21,7,7,0,0,0-1.66.6,3.5,3.5,0,0,0-1.19,1A2.13,2.13,0,0,0,53,21.29a3,3,0,0,0,.42,1.63A3.81,3.81,0,0,0,54.5,24a6.26,6.26,0,0,0,1.61.75l1.89.6q1.14.36,2.41.72a10.89,10.89,0,0,1,2.33,1,5.36,5.36,0,0,1,1.76,1.58,4.27,4.27,0,0,1,.7,2.54,4.65,4.65,0,0,1-.67,2.46,5.74,5.74,0,0,1-1.92,1.89,10.52,10.52,0,0,1-3,1.22,15.21,15.21,0,0,1-3.79.44q-.83,0-1.89-.1a18,18,0,0,1-2.13-.34,18.41,18.41,0,0,1-2-.57,7.81,7.81,0,0,1-1.71-.8,4.38,4.38,0,0,1-.86-.75A.8.8,0,0,1,47.1,33.65Z" transform="translate(-1.19 -1.33)"/><path class="a" d="M71.8,33.49a22.75,22.75,0,0,1-.31-3.63q-.05-2.28,0-4.85t.31-5q.23-2.46.49-4.18h3.84a71.88,71.88,0,0,0,0,8.69,26.46,26.46,0,0,0,.93,5.73,7.25,7.25,0,0,0,1.69,3.14,3.26,3.26,0,0,0,2.31,1,3,3,0,0,0,2.57-1.48,13.62,13.62,0,0,0,1.71-3.92,53.85,53.85,0,0,0,1.25-5.55q.54-3.11,1.17-6.38a3.28,3.28,0,0,1,.31-1,.85.85,0,0,1,.83-.39.77.77,0,0,1,.78.49A3.78,3.78,0,0,1,90,17.31q.21,3.32.42,7t.23,7.19q0,3.48-.21,6.41a17.35,17.35,0,0,1-.91,4.7,10.41,10.41,0,0,1-2.39,3.79A14.42,14.42,0,0,1,83.71,49a15.77,15.77,0,0,1-7.19,1.87,2.86,2.86,0,0,1-1.43-.31.9.9,0,0,1-.54-.78A.72.72,0,0,1,75,49q.47-.18,1.09-.39a18.71,18.71,0,0,0,7.13-3.74,6.35,6.35,0,0,0,2.21-4.62,4.45,4.45,0,0,0-.83-2.85,2.82,2.82,0,0,0-2.33-1,12.86,12.86,0,0,0-2.85.29,10.27,10.27,0,0,1-2.28.29,12.47,12.47,0,0,1-1.82-.13,5,5,0,0,1-1.58-.49,3.65,3.65,0,0,1-1.22-1A4.11,4.11,0,0,1,71.8,33.49Z" transform="translate(-1.19 -1.33)"/><path class="b" d="M94.27,17.36q0-.73,1.32-1.09a12.68,12.68,0,0,1,3.29-.36,5.56,5.56,0,0,1,3.17.73,2.73,2.73,0,0,1,.88,2.65l-1.19,17.8H99.46q-.26-3.94-.52-7.68t-.57-7.47a6.47,6.47,0,0,0-.18-1.25,1.87,1.87,0,0,0-.42-.78,2.76,2.76,0,0,0-.8-.57l-1.3-.62q-.57-.26-1-.49A.89.89,0,0,1,94.27,17.36ZM97.17,4.8a4.2,4.2,0,0,1,.7-2.49,2.21,2.21,0,0,1,1.89-1,2.26,2.26,0,0,1,1.95,1,4.2,4.2,0,0,1,.7,2.49,9.12,9.12,0,0,1-.26,2.39,5.11,5.11,0,0,1-.65,1.5,2.33,2.33,0,0,1-.86.8,2,2,0,0,1-.88.23,1.82,1.82,0,0,1-.86-.23,2.41,2.41,0,0,1-.83-.8,5.09,5.09,0,0,1-.65-1.5A9.08,9.08,0,0,1,97.17,4.8Z" transform="translate(-1.19 -1.33)"/><path class="b" d="M108.64,25.4a9.44,9.44,0,0,1,.83-4,8.7,8.7,0,0,1,2.31-3,10.65,10.65,0,0,1,3.45-1.92,13.25,13.25,0,0,1,4.31-.67,18,18,0,0,1,3.89.36q1.61.36,2.75.73V21.4a16,16,0,0,0-3-2.13,7.47,7.47,0,0,0-3.61-.88,6.29,6.29,0,0,0-2.65.54,5.85,5.85,0,0,0-2,1.5,7.13,7.13,0,0,0-1.3,2.23,7.84,7.84,0,0,0-.47,2.72,10,10,0,0,0,1,4.77,8.54,8.54,0,0,0,2.54,3,9.29,9.29,0,0,0,3.32,1.5,14.63,14.63,0,0,0,3.29.42,6.26,6.26,0,0,0,.91-.05,5.84,5.84,0,0,1,.86-.05q.78,0,.78.62t-1.27,1.22a9.44,9.44,0,0,1-3.35.49,13.38,13.38,0,0,1-5.81-1.14,11.75,11.75,0,0,1-3.89-2.88,10.89,10.89,0,0,1-2.18-3.84A13.13,13.13,0,0,1,108.64,25.4Z" transform="translate(-1.19 -1.33)"/><path class="b" d="M129.55,26.18a9.85,9.85,0,0,1,3.09-7.68q3.09-2.8,8.43-2.8t8.48,2.78a9.7,9.7,0,0,1,3.09,7.6,12.35,12.35,0,0,1-.8,4.54,10,10,0,0,1-2.31,3.53,10.62,10.62,0,0,1-3.63,2.31,14.36,14.36,0,0,1-9.62,0,10,10,0,0,1-5.91-5.81A12,12,0,0,1,129.55,26.18Zm4.77,0q0,4.22,1.82,6.43a6,6,0,0,0,4.93,2.21,6.12,6.12,0,0,0,5-2.21q1.84-2.21,1.84-6.43T146,20.06a6.54,6.54,0,0,0-5-1.93,6.45,6.45,0,0,0-4.93,1.93Q134.32,22,134.32,26.2Z" transform="translate(-1.19 -1.33)"/><path class="b" d="M158.5,14.35a2.11,2.11,0,0,1,.29-.78.74.74,0,0,1,.65-.26.78.78,0,0,1,.75.52,8.3,8.3,0,0,0,.62,1.12A3.86,3.86,0,0,0,162,16.06a4.9,4.9,0,0,0,2.54.52,17.15,17.15,0,0,0,1.74-.08c.5-.05,1-.11,1.48-.18l1.48-.18a16.54,16.54,0,0,1,1.69-.08,4.86,4.86,0,0,1,3.09.88,5.06,5.06,0,0,1,1.63,2.44,17,17,0,0,1,.57,3.32q.21,2.18.26,4.72t0,5.14q-.08,2.59-.23,4.51h-3q-.05-1.56-.18-3.55t-.36-4.07q-.23-2.07-.65-4.07a21.3,21.3,0,0,0-1-3.55,8.86,8.86,0,0,0-1.45-2.52,2.48,2.48,0,0,0-1.92-1,3.17,3.17,0,0,0-2.54,1.27,10.84,10.84,0,0,0-1.76,3.5,40.11,40.11,0,0,0-1.27,5.24q-.54,3-1.12,6.49a9.51,9.51,0,0,1-.42,1.71.77.77,0,0,1-.78.52.93.93,0,0,1-.88-.47,4.86,4.86,0,0,1-.36-1.76q-.16-1.71-.29-4.33T158.11,25q0-2.91.05-5.73T158.5,14.35Z" transform="translate(-1.19 -1.33)"/></svg>